{"title":"El Filantropo 1x05 [HDTV + AC3 + Spanish]","uid":5587571,"size":467155297,"categoryP":"video","categoryS":"hd___tv_shows","magnet":"?xt=urn:btih:2e4a49923af0e5cbeeaef0c9fd5cf58aadfe96aa&amp;dn=El+Filantropo+1x05+%5BHDTV+%2B+AC3+%2B+Spanish%5D&amp;tr=udp%3A%2F%2Ftracker.openbittorrent.com%3A80&amp;tr=udp%3A%2F%2Fopen.demonii.com%3A1337&amp;tr=udp%3A%2F%2Ftracker.coppersurfer.tk%3A6969&amp;tr=udp%3A%2F%2Fexodus.desync.com%3A6969","seeders":0,"leechers":0,"uploader":"fleqii","files":1,"time":1274751599,"description":"C:UsersJoelContactsEl Filantropo 1x05 [AC3 + Spanish].mkv\n   General\n      Complete name : C:UsersJoelContactsEl Filantropo 1x05 [AC3 + \n\nSpanish].mkv\n      Format : Matroska\n      File size : 446 MiB\n      Duration : 41mn 1s\n      Overall bit rate : 1 518 Kbps\n      Encoded date : UTC 2010-05-24 22:47:27\n      Writing application : VirtualDubMod 1.5.10.2 (build 2540/release)\n      Writing library : libebml-0.7.5 &amp; libmatroska-0.7.7\n   Video #1\n      ID : 1\n      Format : MPEG-4 Visual\n      Format profile : Simple@L3\n      Format settings, BVOP : No\n      Format settings, QPel : No\n      Format settings, GMC : No warppoints\n      Format settings, Matrix : Default (H.263)\n      Codec ID : XVID\n      Codec ID/Hint : XviD\n      Duration : 41mn 1s\n      Bit rate : 1 040 Kbps\n      Width : 624 pixels\n      Height : 352 pixels\n      Display aspect ratio : 16:9\n      Original display aspect ratio : 16:9\n      Frame rate : 25.000 fps\n      Resolution : 24 bits\n      Colorimetry : 4:2:0\n      Scan type : Progressive\n      Bits/(Pixel*Frame) : 0.189\n      Stream size : 305 MiB (69%)\n      Writing library : XviD 1.2.0.dev49\n   Audio #2\n      ID : 2\n      Format : AC-3\n      Format/Info : Audio Coding 3\n      Codec ID : A_AC3\n      Duration : 41mn 1s\n      Bit rate mode : Constant\n      Bit rate : 448 Kbps\n      Channel(s) : 2 channels\n      Channel positions : L R\n      Sampling rate : 48.0 KHz\n      Stream size : 131 MiB (30%)","torrent":{"xt":"urn:btih:2e4a49923af0e5cbeeaef0c9fd5cf58aadfe96aa","amp;dn":"El+Filantropo+1x05+%5BHDTV+%2B+AC3+%2B+Spanish%5D","amp;tr":["udp%3A%2F%2Ftracker.openbittorrent.com%3A80","udp%3A%2F%2Fopen.demonii.com%3A1337","udp%3A%2F%2Ftracker.coppersurfer.tk%3A6969","udp%3A%2F%2Fexodus.desync.com%3A6969"],"infoHash":"2e4a49923af0e5cbeeaef0c9fd5cf58aadfe96aa","infoHashBuffer":{"type":"Buffer","data":[46,74,73,146,58,240,229,203,238,174,240,201,253,92,245,138,173,254,150,170]},"announce":[],"urlList":[]}}